PathFileType	4	(x/y/z)	S06_M20_T22
DataRate	CameraRate	NumFrames	NumMarkers	Units	OrigDataRate	OrigDataStartFrame	OrigNumFrames
240	240	4	51	mm	240	1	511
Frame#	Time	Sternum			R.Acromium			L.Acromium			Top.Head			R.ASIS			L.ASIS			R.PSIS			L.PSIS			R.Great.Tro			L.Great.Tro			R.Iliac.Crest			L.Iliac.Crest			V.Sacral			R.Thigh.Upper.Post			R.Thigh.Lower.Ant			R.Thigh.Lower.Post			R.Thigh.Upper.Ant			R.Knee.Lat			R.Knee.Med			R.Shank.Upper.Post			R.Shank.Lower.Ant			R.Shank.Lower.Post			R.Shank.Upper.Ant			R.Ankle.Lat			R.Ankle.Med			R.Heel.Upper			R.Heel.Med			R.Heel.Lat			R.Toe.Lat			R.Toe.Med			R.Toe.Tip			L.Thigh.Upper.Post			L.Thigh.Lower.Ant			L.Thigh.Lower.Post			L.Thigh.Upper.Ant			L.Knee.Lat			L.Knee.Med			L.Shank.Upper.Post			L.Shank.Lower.Ant			L.Shank.Lower.Post			L.Shank.Upper.Ant			L.Ankle.Lat			L.Ankle.Med			L.Heel.Upper			L.Heel.Med			L.Heel.Lat			L.Toe.Lat			L.Toe.Med			L.Toe.Tip			Cervical.Spine			Back			
		X1	Y1	Z1	X2	Y2	Z2	X3	Y3	Z3	X4	Y4	Z4	X5	Y5	Z5	X6	Y6	Z6	X7	Y7	Z7	X8	Y8	Z8	X9	Y9	Z9	X10	Y10	Z10	X11	Y11	Z11	X12	Y12	Z12	X13	Y13	Z13	X14	Y14	Z14	X15	Y15	Z15	X16	Y16	Z16	X17	Y17	Z17	X18	Y18	Z18	X19	Y19	Z19	X20	Y20	Z20	X21	Y21	Z21	X22	Y22	Z22	X23	Y23	Z23	X24	Y24	Z24	X25	Y25	Z25	X26	Y26	Z26	X27	Y27	Z27	X28	Y28	Z28	X29	Y29	Z29	X30	Y30	Z30	X31	Y31	Z31	X32	Y32	Z32	X33	Y33	Z33	X34	Y34	Z34	X35	Y35	Z35	X36	Y36	Z36	X37	Y37	Z37	X38	Y38	Z38	X39	Y39	Z39	X40	Y40	Z40	X41	Y41	Z41	X42	Y42	Z42	X43	Y43	Z43	X44	Y44	Z44	X45	Y45	Z45	X46	Y46	Z46	X47	Y47	Z47	X48	Y48	Z48	X49	Y49	Z49	X50	Y50	Z50	X51	Y51	Z51	

1	0	NaN	NaN	NaN	-1699.7	1470.7	497.24	-1730.6	1467.6	148.61	-1659.1	1783.6	315.98	NaN	NaN	NaN	NaN	NaN	NaN	-1812.2	1044.8	354.6	-1809	1043.3	274.92	-1704.2	964.97	510.43	-1687	946.12	153.71	-1718	1106.3	488.49	-1678.2	1092.2	167.58	-1824.4	1010.6	319.95	-1784.5	733.73	499.37	NaN	NaN	NaN	NaN	NaN	NaN	-1711.8	719.88	489.67	-1855.2	544.57	460.97	-1820.8	542.21	336.78	NaN	NaN	NaN	NaN	NaN	NaN	-2052.1	308.53	421.27	-1942.1	348.87	441.6	-2100.7	183.8	395.7	-2075	180.47	314.84	-2168.9	175.52	340.98	-2172.3	143.26	311.53	-2183.5	145.32	375.48	-2037.5	52.718	436.36	-1998.7	47.912	319.15	-1940.1	49.155	371.33	-1530.4	719.98	174.27	NaN	NaN	NaN	-1513.7	632.05	194.44	-1481	756.54	214.04	-1492.8	543.95	209	NaN	NaN	NaN	-1459.2	313.7	214.61	-1371.6	280.96	210.12	-1437.7	244.37	229.35	-1399.9	345.02	204.23	-1341.5	127.43	225.2	-1338.7	154.18	313.68	NaN	NaN	NaN	NaN	NaN	NaN	-1359.1	29.798	247.59	-1212.1	127.39	198.64	NaN	NaN	NaN	-1155.2	203.54	254.41	-1773.1	1522.6	325.48	-1822.9	1246.8	326.72
2	0.0041667	NaN	NaN	NaN	-1694.8	1470.7	496.77	-1725.1	1467.3	148.09	-1654	1783.5	315.44	NaN	NaN	NaN	NaN	NaN	NaN	-1805.9	1044.4	353.91	-1802.8	1043	274.26	-1698.4	964.71	509.96	-1680.4	945.94	153.33	-1712.2	1106	488	-1672.1	1092.2	167.16	-1818.2	1010.2	319.26	-1778.6	733.5	499.29	NaN	NaN	NaN	NaN	NaN	NaN	-1705.7	719.63	490.05	-1849.1	544.32	461.44	-1813.9	541.42	337.48	NaN	NaN	NaN	NaN	NaN	NaN	-2047.9	310.07	421.7	-1936.3	349.93	441.86	-2097.7	185.79	396.24	-2071.7	182.05	315.53	-2165.8	178.79	341.52	-2169.5	146.72	311.85	-2180.6	148.67	375.76	-2037	53.148	436.47	-1998.1	48.194	319.28	-1940.1	49.088	371.57	-1524.8	719.22	173.97	NaN	NaN	NaN	-1508.9	631.2	194.17	-1475.4	755.27	213.87	-1488.3	543.12	208.73	NaN	NaN	NaN	-1455.4	312.82	214.31	-1368.5	279.53	210.68	-1434.4	243.36	229.29	-1396	343.98	204.28	-1338.6	126.26	225.38	-1335.7	152.73	313.88	NaN	NaN	NaN	NaN	NaN	NaN	-1358.1	30.152	247.59	-1209.9	124.84	199.06	NaN	NaN	NaN	-1152	200.19	255.09	-1767.8	1522.3	324.89	-1817.1	1246.5	326.19
3	0.0083333	NaN	NaN	NaN	-1689.7	1470.7	496.29	-1719.4	1467.1	147.55	-1648.8	1783.5	314.87	NaN	NaN	NaN	NaN	NaN	NaN	-1799.3	1044.1	353.19	-1796.3	1042.7	273.57	-1692.3	964.44	509.47	-1673.6	945.76	152.89	-1706	1105.8	487.5	-1665.7	1092.2	166.72	-1811.7	1009.9	318.53	-1772.5	733.28	499.18	NaN	NaN	NaN	NaN	NaN	NaN	-1699.4	719.37	490.47	-1842.6	544.04	461.95	-1806.8	540.59	338.21	NaN	NaN	NaN	NaN	NaN	NaN	-2043.5	311.67	422.17	-1930.4	350.86	442.04	-2094.5	187.87	396.81	-2068.3	183.7	316.26	-2162.4	182.21	342.1	-2166.5	150.36	312.21	-2177.5	152.19	376.08	-2036.3	53.629	436.58	-1997.4	48.512	319.42	-1939.8	49.1	371.65	-1519.1	718.44	173.65	NaN	NaN	NaN	-1503.9	630.34	193.88	-1469.6	753.98	213.67	-1483.6	542.28	208.45	NaN	NaN	NaN	-1451.4	311.93	214.02	-1365.2	278.08	211.25	-1430.9	242.33	229.24	-1391.9	342.93	204.34	-1335.6	125.06	225.58	-1332.6	151.25	314.1	NaN	NaN	NaN	NaN	NaN	NaN	-1357.2	30.55	247.59	-1207.7	122.19	199.52	NaN	NaN	NaN	-1148.6	196.65	255.82	-1762.3	1522	324.28	-1811.1	1246.1	325.63
4	0.0125	NaN	NaN	NaN	-1684.3	1470.7	495.78	-1713.4	1466.9	146.99	-1643.4	1783.4	314.29	NaN	NaN	NaN	NaN	NaN	NaN	-1792.6	1043.7	352.45	-1789.5	1042.4	272.85	-1685.9	964.15	508.94	-1666.4	945.59	152.41	-1699.6	1105.5	486.99	-1659	1092.2	166.26	-1805	1009.5	317.77	-1766.2	733.05	499.06	NaN	NaN	NaN	NaN	NaN	NaN	-1692.8	719.09	490.92	-1835.9	543.75	462.48	-1799.5	539.73	338.97	NaN	NaN	NaN	NaN	NaN	NaN	-2038.9	313.32	422.67	-1924.6	351.75	442.39	-2091.2	190.03	397.43	-2064.7	185.42	317.04	-2158.8	185.77	342.73	-2163.2	154.18	312.6	-2174.3	155.87	376.43	-2035.7	54.166	436.69	-1996.6	48.868	319.57	-1939.9	48.887	371.91	-1513.2	717.67	173.3	NaN	NaN	NaN	-1498.8	629.49	193.57	-1463.7	752.7	213.45	-1478.8	541.44	208.16	NaN	NaN	NaN	-1447.3	311.06	213.76	-1361.9	276.63	211.83	-1427.3	241.32	229.2	-1387.7	341.86	204.42	-1332.5	123.85	225.8	-1329.4	149.77	314.35	NaN	NaN	NaN	NaN	NaN	NaN	-1356.2	30.996	247.57	-1205.4	119.46	200	NaN	NaN	NaN	-1145.1	192.96	256.59	-1756.6	1521.7	323.64	-1804.8	1245.6	325.06
